<svg width="13" height="16" viewBox="0 0 13 16" fill="none" xmlns="http://www.w3.org/2000/svg">
<path d="M9.28816 3.80439C9.39958 3.80439 9.57203 3.81766 9.80549 3.84419C10.0443 3.86541 10.3149 3.92378 10.6173 4.01929C10.9198 4.11479 11.2275 4.26867 11.5406 4.48091C11.8536 4.69315 12.1428 4.99028 12.4081 5.37231C12.3816 5.38823 12.2807 5.45986 12.1056 5.58721C11.9358 5.71455 11.7422 5.90026 11.5246 6.14434C11.3071 6.38311 11.1161 6.6882 10.9516 7.05962C10.7924 7.42573 10.7128 7.86348 10.7128 8.37285C10.7128 8.95651 10.8136 9.44997 11.0153 9.85322C11.2222 10.2565 11.461 10.5828 11.7316 10.8322C12.0075 11.0816 12.2516 11.2646 12.4638 11.3813C12.6813 11.4928 12.7981 11.5511 12.814 11.5564C12.8087 11.5777 12.7689 11.6971 12.6946 11.9146C12.6203 12.1268 12.5036 12.4028 12.3444 12.7423C12.1905 13.0766 11.9889 13.4268 11.7395 13.7929C11.5114 14.1166 11.2753 14.427 11.0312 14.7241C10.7924 15.0213 10.5298 15.2627 10.2432 15.4484C9.96202 15.6394 9.64366 15.7349 9.28816 15.7349C9.01755 15.7349 8.78674 15.7031 8.59573 15.6394C8.40471 15.5757 8.22166 15.5014 8.04656 15.4166C7.87677 15.337 7.6884 15.2653 7.48147 15.2017C7.27454 15.138 7.0172 15.1062 6.70945 15.1062C6.30619 15.1062 5.96926 15.1566 5.69866 15.2574C5.43336 15.3635 5.18132 15.4696 4.94255 15.5757C4.70378 15.6819 4.42257 15.7349 4.0989 15.7349C3.60544 15.7349 3.17035 15.5412 2.79363 15.1539C2.42221 14.7666 2.04018 14.2996 1.64753 13.7531C1.34509 13.318 1.06918 12.8166 0.8198 12.2489C0.570419 11.6811 0.371444 11.0789 0.222876 10.4422C0.0743087 9.80547 2.48458e-05 9.16875 2.48458e-05 8.53203C2.48458e-05 7.51328 0.193693 6.65371 0.581031 5.95332C0.968368 5.24762 1.46448 4.71437 2.06936 4.35356C2.67424 3.98745 3.303 3.80439 3.95564 3.80439C4.30053 3.80439 4.62419 3.86541 4.92664 3.98745C5.23438 4.10949 5.52091 4.23153 5.78621 4.35356C6.05151 4.4703 6.29293 4.52866 6.51047 4.52866C6.71741 4.52866 6.96148 4.4703 7.2427 4.35356C7.52392 4.23153 7.83432 4.10949 8.1739 3.98745C8.51879 3.86541 8.89021 3.80439 9.28816 3.80439ZM8.73103 2.51504C8.46573 2.8387 8.13145 3.10666 7.7282 3.3189C7.33025 3.53114 6.95352 3.63726 6.59802 3.63726C6.52374 3.63726 6.45211 3.6293 6.38313 3.61338C6.37782 3.59215 6.36987 3.55501 6.35925 3.50195C6.35395 3.44889 6.35129 3.39053 6.35129 3.32686C6.35129 2.9236 6.43884 2.53096 6.61394 2.14893C6.78904 1.76689 6.99067 1.44854 7.21882 1.19385C7.50004 0.85957 7.85554 0.581006 8.28533 0.358154C8.72042 0.135303 9.13694 0.0159181 9.53489 8.56817e-08C9.55081 0.0902019 9.55876 0.193669 9.55876 0.3104C9.55876 0.718962 9.48183 1.11691 9.32795 1.50425C9.17408 1.88628 8.97511 2.22321 8.73103 2.51504Z" fill="white"/>
</svg>
