<svg width="81" height="92" viewBox="0 0 81 92" fill="none" xmlns="http://www.w3.org/2000/svg">
<rect x="10.3008" width="60" height="60" rx="14" fill="white"/>
<path d="M29.9976 49V26.0752H29.9243L22.9297 30.9458V27.6316L29.9609 22.5779H33.1836V49H29.9976ZM49.0955 49.4395C47.0691 49.4395 45.3296 48.884 43.877 47.7732C42.4365 46.6624 41.3318 45.0876 40.5627 43.0491C39.7937 41.0105 39.4092 38.5935 39.4092 35.7981V35.7615C39.4092 32.9661 39.7937 30.5491 40.5627 28.5105C41.3318 26.4719 42.4365 24.9033 43.877 23.8047C45.3296 22.6938 47.0691 22.1384 49.0955 22.1384C51.1218 22.1384 52.8613 22.6938 54.314 23.8047C55.7666 24.9033 56.8774 26.4719 57.6465 28.5105C58.4277 30.5491 58.8184 32.9661 58.8184 35.7615V35.7981C58.8184 38.5935 58.4277 41.0105 57.6465 43.0491C56.8774 45.0876 55.7666 46.6624 54.314 47.7732C52.8613 48.884 51.1218 49.4395 49.0955 49.4395ZM49.0955 46.5647C50.4382 46.5647 51.5857 46.1313 52.5378 45.2646C53.5022 44.3857 54.2346 43.1406 54.7351 41.5293C55.2478 39.918 55.5042 38.0076 55.5042 35.7981V35.7615C55.5042 33.552 55.2478 31.6477 54.7351 30.0486C54.2346 28.4373 53.5022 27.1982 52.5378 26.3315C51.5857 25.4648 50.4382 25.0315 49.0955 25.0315C47.7527 25.0315 46.6052 25.4648 45.6531 26.3315C44.7009 27.1982 43.9746 28.4373 43.4741 30.0486C42.9736 31.6477 42.7234 33.552 42.7234 35.7615V35.7981C42.7234 38.0076 42.9736 39.918 43.4741 41.5293C43.9746 43.1406 44.7009 44.3857 45.6531 45.2646C46.6052 46.1313 47.7527 46.5647 49.0955 46.5647Z" fill="black"/>
<path d="M27.3015 15.333V7.23022H28.9636L31.4006 13.4688H31.4961L33.9275 7.23022H35.5896V15.333H34.2869V9.57178H33.5793L35.0168 7.45483L31.9397 15.333H30.9514L27.8799 7.45483L29.3174 9.57178H28.6042V15.333H27.3015ZM41.0813 15.5352C40.2877 15.5352 39.6045 15.363 39.0317 15.0186C38.4627 14.6704 38.0229 14.1781 37.7122 13.5417C37.4014 12.9054 37.2461 12.1529 37.2461 11.2844V11.2732C37.2461 10.401 37.4014 9.64852 37.7122 9.01587C38.0266 8.37948 38.4702 7.88908 39.043 7.54468C39.6195 7.20028 40.2989 7.02808 41.0813 7.02808C41.8674 7.02808 42.5469 7.20028 43.1196 7.54468C43.6924 7.88908 44.1341 8.37948 44.4448 9.01587C44.7555 9.65226 44.9109 10.4047 44.9109 11.2732V11.2844C44.9109 12.1529 44.7555 12.9054 44.4448 13.5417C44.1379 14.1781 43.698 14.6704 43.1252 15.0186C42.5525 15.363 41.8712 15.5352 41.0813 15.5352ZM41.0813 14.283C41.5642 14.283 41.9816 14.1594 42.3335 13.9124C42.6854 13.6653 42.9568 13.3171 43.1477 12.8679C43.3424 12.4187 43.4397 11.8909 43.4397 11.2844V11.2732C43.4397 10.663 43.3424 10.1352 43.1477 9.6897C42.9568 9.24048 42.6854 8.89421 42.3335 8.65088C41.9816 8.40381 41.5642 8.28027 41.0813 8.28027C40.6021 8.28027 40.1847 8.40381 39.8291 8.65088C39.4772 8.89421 39.2039 9.24048 39.0093 9.6897C38.8184 10.1352 38.7229 10.663 38.7229 11.2732V11.2844C38.7229 11.8909 38.8165 12.4187 39.0037 12.8679C39.1946 13.3171 39.466 13.6653 39.8179 13.9124C40.1735 14.1594 40.5946 14.283 41.0813 14.283ZM46.573 15.333V7.23022H47.8308L52.177 13.3228L51.1775 12.8118H51.9019V7.23022H53.2944V15.333H52.0422L47.696 9.23486L48.6956 9.74585H47.9712V15.333H46.573Z" fill="#FF3A2F"/>
<g filter="url(#filter0_d_168027_3739)">
<path d="M18.8145 76.2051C18.0332 76.2051 17.3555 76.0254 16.7812 75.666C16.2109 75.3066 15.7715 74.7969 15.4629 74.1367C15.1543 73.4766 15 72.6914 15 71.7812V71.7695C15 70.8555 15.1543 70.0684 15.4629 69.4082C15.7715 68.748 16.2109 68.2383 16.7812 67.8789C17.3516 67.5195 18.0293 67.3398 18.8145 67.3398C19.4355 67.3398 19.9961 67.4629 20.4961 67.709C21 67.9512 21.4121 68.2871 21.7324 68.7168C22.0566 69.1465 22.2539 69.6406 22.3242 70.1992V70.2344H21.0176L21.0117 70.2109C20.9336 69.8633 20.791 69.5625 20.584 69.3086C20.377 69.0547 20.123 68.8574 19.8223 68.7168C19.5215 68.5762 19.1855 68.5059 18.8145 68.5059C18.3105 68.5059 17.873 68.6387 17.502 68.9043C17.1348 69.1699 16.8496 69.5469 16.6465 70.0352C16.4473 70.5195 16.3477 71.0977 16.3477 71.7695V71.7812C16.3477 72.4453 16.4473 73.0215 16.6465 73.5098C16.8496 73.998 17.1348 74.375 17.502 74.6406C17.873 74.9062 18.3125 75.0391 18.8203 75.0391C19.1914 75.0391 19.5273 74.9766 19.8281 74.8516C20.1328 74.7266 20.3867 74.5488 20.5898 74.3184C20.793 74.084 20.9316 73.8086 21.0059 73.4922L21.0176 73.4688H22.3301L22.3242 73.498C22.2422 74.041 22.043 74.5156 21.7266 74.9219C21.4102 75.3281 21.0039 75.6445 20.5078 75.8711C20.0117 76.0938 19.4473 76.2051 18.8145 76.2051ZM25.6523 76.1055C25.25 76.1055 24.8887 76.0293 24.5684 75.877C24.252 75.7207 24.002 75.5 23.8184 75.2148C23.6348 74.9297 23.543 74.5957 23.543 74.2129V74.2012C23.543 73.8184 23.6348 73.4922 23.8184 73.2227C24.0059 72.9531 24.2754 72.7422 24.627 72.5898C24.9824 72.4336 25.4121 72.3398 25.916 72.3086L28.2656 72.168V73.0645L26.0918 73.2051C25.6543 73.2324 25.332 73.3262 25.125 73.4863C24.918 73.6426 24.8145 73.8633 24.8145 74.1484V74.1602C24.8145 74.4492 24.9258 74.6777 25.1484 74.8457C25.3711 75.0098 25.6523 75.0918 25.9922 75.0918C26.3086 75.0918 26.5898 75.0293 26.8359 74.9043C27.0859 74.7754 27.2812 74.6035 27.4219 74.3887C27.5625 74.1699 27.6328 73.9238 27.6328 73.6504V71.6465C27.6328 71.2949 27.5234 71.0273 27.3047 70.8438C27.0898 70.6562 26.7695 70.5625 26.3438 70.5625C25.9883 70.5625 25.6973 70.625 25.4707 70.75C25.248 70.875 25.0996 71.0508 25.0254 71.2773L25.0137 71.2949H23.7891L23.7949 71.2539C23.8457 70.9023 23.9844 70.5977 24.2109 70.3398C24.4414 70.0781 24.7422 69.875 25.1133 69.7305C25.4883 69.5859 25.916 69.5137 26.3965 69.5137C26.9316 69.5137 27.3848 69.5996 27.7559 69.7715C28.1309 69.9395 28.4141 70.1836 28.6055 70.5039C28.8008 70.8203 28.8984 71.2012 28.8984 71.6465V76H27.6328V75.0977H27.5391C27.4141 75.3125 27.2578 75.4961 27.0703 75.6484C26.8828 75.7969 26.6699 75.9102 26.4316 75.9883C26.1934 76.0664 25.9336 76.1055 25.6523 76.1055ZM30.75 76V67.1406H32.0215V76H30.75ZM36.5859 76.123C35.9648 76.123 35.4316 75.9902 34.9863 75.7246C34.541 75.4551 34.1973 75.0742 33.9551 74.582C33.7168 74.0898 33.5977 73.5078 33.5977 72.8359V72.8301C33.5977 72.166 33.7168 71.5859 33.9551 71.0898C34.1973 70.5938 34.5371 70.207 34.9746 69.9297C35.416 69.6523 35.9316 69.5137 36.5215 69.5137C37.1152 69.5137 37.625 69.6465 38.0508 69.9121C38.4805 70.1777 38.8105 70.5508 39.041 71.0312C39.2715 71.5078 39.3867 72.0664 39.3867 72.707V73.1523H34.2422V72.2441H38.7539L38.1445 73.0879V72.5781C38.1445 72.125 38.0742 71.75 37.9336 71.4531C37.7969 71.1523 37.6074 70.9277 37.3652 70.7793C37.123 70.6309 36.8438 70.5566 36.5273 70.5566C36.2109 70.5566 35.9277 70.6348 35.6777 70.791C35.4316 70.9434 35.2363 71.1699 35.0918 71.4707C34.9512 71.7715 34.8809 72.1406 34.8809 72.5781V73.0879C34.8809 73.5059 34.9512 73.8633 35.0918 74.1602C35.2324 74.457 35.4316 74.6836 35.6895 74.8398C35.9512 74.9961 36.2598 75.0742 36.6152 75.0742C36.8887 75.0742 37.123 75.0371 37.3184 74.9629C37.5176 74.8848 37.6797 74.7891 37.8047 74.6758C37.9336 74.5625 38.0215 74.4512 38.0684 74.3418L38.0918 74.2949H39.3223L39.3105 74.3477C39.2559 74.5586 39.1602 74.7695 39.0234 74.9805C38.8867 75.1875 38.7051 75.377 38.4785 75.5488C38.2559 75.7207 37.9863 75.8594 37.6699 75.9648C37.3574 76.0703 36.9961 76.123 36.5859 76.123ZM40.8984 76V69.6367H42.1699V70.5977H42.2695C42.4258 70.2578 42.6562 69.9922 42.9609 69.8008C43.2656 69.6094 43.6504 69.5137 44.1152 69.5137C44.8301 69.5137 45.377 69.7188 45.7559 70.1289C46.1348 70.5391 46.3242 71.123 46.3242 71.8809V76H45.0469V72.1797C45.0469 71.6484 44.9355 71.2539 44.7129 70.9961C44.4941 70.7344 44.1504 70.6035 43.6816 70.6035C43.373 70.6035 43.1055 70.6719 42.8789 70.8086C42.6523 70.9414 42.4766 71.1328 42.3516 71.3828C42.2305 71.6289 42.1699 71.9238 42.1699 72.2676V76H40.8984ZM50.4141 76.1055C49.8828 76.1055 49.418 75.9727 49.0195 75.707C48.625 75.4375 48.3184 75.0566 48.0996 74.5645C47.8848 74.0723 47.7773 73.4922 47.7773 72.8242V72.8125C47.7773 72.1406 47.8848 71.5586 48.0996 71.0664C48.3145 70.5742 48.6191 70.1953 49.0137 69.9297C49.4082 69.6602 49.875 69.5254 50.4141 69.5254C50.707 69.5254 50.9805 69.5723 51.2344 69.666C51.4883 69.7559 51.7129 69.8848 51.9082 70.0527C52.1035 70.2168 52.2578 70.4141 52.3711 70.6445H52.4648V67.1406H53.7422V76H52.4648V74.998H52.3711C52.2461 75.2285 52.0879 75.4277 51.8965 75.5957C51.7051 75.7598 51.4844 75.8867 51.2344 75.9766C50.9844 76.0625 50.7109 76.1055 50.4141 76.1055ZM50.7773 75.0156C51.1289 75.0156 51.4336 74.9277 51.6914 74.752C51.9492 74.5762 52.1465 74.3242 52.2832 73.9961C52.4199 73.6641 52.4883 73.2734 52.4883 72.8242V72.8125C52.4883 72.3594 52.418 71.9688 52.2773 71.6406C52.1406 71.3125 51.9434 71.0605 51.6855 70.8848C51.4316 70.7051 51.1289 70.6152 50.7773 70.6152C50.4258 70.6152 50.1211 70.7051 49.8633 70.8848C49.6094 71.0605 49.4141 71.3125 49.2773 71.6406C49.1445 71.9648 49.0781 72.3555 49.0781 72.8125V72.8242C49.0781 73.2773 49.1445 73.668 49.2773 73.9961C49.4141 74.3242 49.6094 74.5762 49.8633 74.752C50.1211 74.9277 50.4258 75.0156 50.7773 75.0156ZM57.375 76.1055C56.9727 76.1055 56.6113 76.0293 56.291 75.877C55.9746 75.7207 55.7246 75.5 55.541 75.2148C55.3574 74.9297 55.2656 74.5957 55.2656 74.2129V74.2012C55.2656 73.8184 55.3574 73.4922 55.541 73.2227C55.7285 72.9531 55.998 72.7422 56.3496 72.5898C56.7051 72.4336 57.1348 72.3398 57.6387 72.3086L59.9883 72.168V73.0645L57.8145 73.2051C57.377 73.2324 57.0547 73.3262 56.8477 73.4863C56.6406 73.6426 56.5371 73.8633 56.5371 74.1484V74.1602C56.5371 74.4492 56.6484 74.6777 56.8711 74.8457C57.0938 75.0098 57.375 75.0918 57.7148 75.0918C58.0312 75.0918 58.3125 75.0293 58.5586 74.9043C58.8086 74.7754 59.0039 74.6035 59.1445 74.3887C59.2852 74.1699 59.3555 73.9238 59.3555 73.6504V71.6465C59.3555 71.2949 59.2461 71.0273 59.0273 70.8438C58.8125 70.6562 58.4922 70.5625 58.0664 70.5625C57.7109 70.5625 57.4199 70.625 57.1934 70.75C56.9707 70.875 56.8223 71.0508 56.748 71.2773L56.7363 71.2949H55.5117L55.5176 71.2539C55.5684 70.9023 55.707 70.5977 55.9336 70.3398C56.1641 70.0781 56.4648 69.875 56.8359 69.7305C57.2109 69.5859 57.6387 69.5137 58.1191 69.5137C58.6543 69.5137 59.1074 69.5996 59.4785 69.7715C59.8535 69.9395 60.1367 70.1836 60.3281 70.5039C60.5234 70.8203 60.6211 71.2012 60.6211 71.6465V76H59.3555V75.0977H59.2617C59.1367 75.3125 58.9805 75.4961 58.793 75.6484C58.6055 75.7969 58.3926 75.9102 58.1543 75.9883C57.916 76.0664 57.6562 76.1055 57.375 76.1055ZM62.4141 76V69.6367H63.6855V70.5977H63.7852C63.8984 70.2578 64.0977 69.9941 64.3828 69.8066C64.6719 69.6191 65.0273 69.5254 65.4492 69.5254C65.5547 69.5254 65.6582 69.5312 65.7598 69.543C65.8613 69.5547 65.9434 69.5684 66.0059 69.584V70.7559C65.8926 70.7324 65.7793 70.7148 65.666 70.7031C65.5566 70.6914 65.4414 70.6855 65.3203 70.6855C64.9961 70.6855 64.7109 70.748 64.4648 70.873C64.2227 70.998 64.0312 71.1738 63.8906 71.4004C63.7539 71.623 63.6855 71.8887 63.6855 72.1973V76H62.4141Z" fill="white"/>
</g>
<defs>
<filter id="filter0_d_168027_3739" x="0" y="52.1406" width="81.0059" height="39.0645" filterUnits="userSpaceOnUse" color-interpolation-filters="sRGB">
<feFlood flood-opacity="0" result="BackgroundImageFix"/>
<feColorMatrix in="SourceAlpha" type="matrix" values="0 0 0 0 0 0 0 0 0 0 0 0 0 0 0 0 0 0 127 0" result="hardAlpha"/>
<feOffset/>
<feGaussianBlur stdDeviation="7.5"/>
<feComposite in2="hardAlpha" operator="out"/>
<feColorMatrix type="matrix" values="0 0 0 0 0 0 0 0 0 0 0 0 0 0 0 0 0 0 0.5 0"/>
<feBlend mode="normal" in2="BackgroundImageFix" result="effect1_dropShadow_168027_3739"/>
<feBlend mode="normal" in="SourceGraphic" in2="effect1_dropShadow_168027_3739" result="shape"/>
</filter>
</defs>
</svg>
