<svg width="20" height="20" viewBox="0 0 20 20" fill="none" xmlns="http://www.w3.org/2000/svg">
<path d="M2.59289 17.4249H11.189C10.9496 17.006 10.7679 16.5535 10.6523 16.076H2.46903C1.7341 16.076 1.32948 15.6822 1.32948 14.9029V7.00198C1.32948 6.23116 1.7341 5.82899 2.46903 5.82899H13.9802C14.7151 5.82899 15.128 6.23116 15.128 7.00198V9.38149C15.3675 9.35635 15.5822 9.33959 15.8051 9.33959C16.0197 9.33959 16.2428 9.35635 16.4574 9.38149V4.59734C16.4574 2.87137 15.5986 2 13.8728 2H2.59289C0.86705 2 0 2.86298 0 4.59734V14.8275C0 16.5619 0.86705 17.4249 2.59289 17.4249ZM6.61436 8.83688H7.10156C7.39058 8.83688 7.48967 8.75309 7.48967 8.45984V7.96552C7.48967 7.67227 7.39058 7.5801 7.10156 7.5801H6.61436C6.32535 7.5801 6.22625 7.67227 6.22625 7.96552V8.45984C6.22625 8.75309 6.32535 8.83688 6.61436 8.83688ZM9.36415 8.83688H9.84309C10.1321 8.83688 10.2312 8.75309 10.2312 8.45984V7.96552C10.2312 7.67227 10.1321 7.5801 9.84309 7.5801H9.36415C9.06687 7.5801 8.97604 7.67227 8.97604 7.96552V8.45984C8.97604 8.75309 9.06687 8.83688 9.36415 8.83688ZM12.1057 8.83688H12.5929C12.8819 8.83688 12.9727 8.75309 12.9727 8.45984V7.96552C12.9727 7.67227 12.8819 7.5801 12.5929 7.5801H12.1057C11.8167 7.5801 11.7175 7.67227 11.7175 7.96552V8.45984C11.7175 8.75309 11.8167 8.83688 12.1057 8.83688ZM3.87282 11.5767H4.36003C4.64905 11.5767 4.73988 11.4928 4.73988 11.1996V10.7053C4.73988 10.412 4.64905 10.3283 4.36003 10.3283H3.87282C3.58381 10.3283 3.48472 10.412 3.48472 10.7053V11.1996C3.48472 11.4928 3.58381 11.5767 3.87282 11.5767ZM6.61436 11.5767H7.10156C7.39058 11.5767 7.48967 11.4928 7.48967 11.1996V10.7053C7.48967 10.412 7.39058 10.3283 7.10156 10.3283H6.61436C6.32535 10.3283 6.22625 10.412 6.22625 10.7053V11.1996C6.22625 11.4928 6.32535 11.5767 6.61436 11.5767ZM9.36415 11.5767H9.84309C10.1321 11.5767 10.2312 11.4928 10.2312 11.1996V10.7053C10.2312 10.412 10.1321 10.3283 9.84309 10.3283H9.36415C9.06687 10.3283 8.97604 10.412 8.97604 10.7053V11.1996C8.97604 11.4928 9.06687 11.5767 9.36415 11.5767ZM3.87282 14.3249H4.36003C4.64905 14.3249 4.73988 14.2326 4.73988 13.9394V13.445C4.73988 13.1518 4.64905 13.0681 4.36003 13.0681H3.87282C3.58381 13.0681 3.48472 13.1518 3.48472 13.445V13.9394C3.48472 14.2326 3.58381 14.3249 3.87282 14.3249ZM6.61436 14.3249H7.10156C7.39058 14.3249 7.48967 14.2326 7.48967 13.9394V13.445C7.48967 13.1518 7.39058 13.0681 7.10156 13.0681H6.61436C6.32535 13.0681 6.22625 13.1518 6.22625 13.445V13.9394C6.22625 14.2326 6.32535 14.3249 6.61436 14.3249ZM9.36415 14.3249H9.84309C10.1321 14.3249 10.2312 14.2326 10.2312 13.9394V13.445C10.2312 13.1518 10.1321 13.0681 9.84309 13.0681H9.36415C9.06687 13.0681 8.97604 13.1518 8.97604 13.445V13.9394C8.97604 14.2326 9.06687 14.3249 9.36415 14.3249ZM15.8051 19C18.076 19 20 17.073 20 14.7438C20 12.4061 18.1007 10.4875 15.8051 10.4875C13.5012 10.4875 11.6103 12.4145 11.6103 14.7438C11.6103 17.0897 13.5012 19 15.8051 19ZM15.8051 17.4082C15.4996 17.4082 15.3014 17.2071 15.3014 16.897V15.2549H13.6829C13.3857 15.2549 13.1792 15.0537 13.1792 14.7438C13.1792 14.4337 13.3857 14.2326 13.6829 14.2326H15.3014V12.5905C15.3014 12.2888 15.4996 12.0794 15.8051 12.0794C16.1106 12.0794 16.3088 12.2888 16.3088 12.5905V14.2326H17.919C18.2246 14.2326 18.431 14.4337 18.431 14.7438C18.431 15.0537 18.2246 15.2549 17.919 15.2549H16.3088V16.897C16.3088 17.2071 16.1106 17.4082 15.8051 17.4082Z" fill="white"/>
</svg>
