<svg width="87" height="94" viewBox="0 0 87 94" fill="none" xmlns="http://www.w3.org/2000/svg">
<g clip-path="url(#clip0_168027_3742)">
<rect x="13.0137" width="60" height="60" fill="url(#paint0_linear_168027_3742)"/>
<path d="M64.9277 28.7109C64.9277 38.7427 55.1165 46.875 43.0137 46.875C41.1806 46.875 39.4001 46.6884 37.6983 46.337C37.1841 46.2308 36.6481 46.2168 36.184 46.4622C34.664 47.2659 32.1626 49.3009 28.9055 49.4451C28.7584 49.4516 28.6762 49.2827 28.7666 49.1666C30.6917 46.6962 31.9462 44.4129 31.1191 43.969C25.0895 40.733 21.0996 35.1082 21.0996 28.7109C21.0996 18.6792 30.9109 10.5469 43.0137 10.5469C55.1165 10.5469 64.9277 18.6792 64.9277 28.7109Z" fill="white"/>
</g>
<g filter="url(#filter0_d_168027_3742)">
<path d="M15 76V67.5449H16.5176L19.207 74.2832H19.3066L21.9961 67.5449H23.5137V76H22.3125V69.8008H21.6621L23.0332 67.7793L19.7402 76H18.7676L15.4805 67.7793L16.8457 69.8008H16.2012V76H15ZM28.1543 76.123C27.5332 76.123 27 75.9902 26.5547 75.7246C26.1094 75.4551 25.7656 75.0742 25.5234 74.582C25.2852 74.0898 25.166 73.5078 25.166 72.8359V72.8301C25.166 72.166 25.2852 71.5859 25.5234 71.0898C25.7656 70.5938 26.1055 70.207 26.543 69.9297C26.9844 69.6523 27.5 69.5137 28.0898 69.5137C28.6836 69.5137 29.1934 69.6465 29.6191 69.9121C30.0488 70.1777 30.3789 70.5508 30.6094 71.0312C30.8398 71.5078 30.9551 72.0664 30.9551 72.707V73.1523H25.8105V72.2441H30.3223L29.7129 73.0879V72.5781C29.7129 72.125 29.6426 71.75 29.502 71.4531C29.3652 71.1523 29.1758 70.9277 28.9336 70.7793C28.6914 70.6309 28.4121 70.5566 28.0957 70.5566C27.7793 70.5566 27.4961 70.6348 27.2461 70.791C27 70.9434 26.8047 71.1699 26.6602 71.4707C26.5195 71.7715 26.4492 72.1406 26.4492 72.5781V73.0879C26.4492 73.5059 26.5195 73.8633 26.6602 74.1602C26.8008 74.457 27 74.6836 27.2578 74.8398C27.5195 74.9961 27.8281 75.0742 28.1836 75.0742C28.457 75.0742 28.6914 75.0371 28.8867 74.9629C29.0859 74.8848 29.248 74.7891 29.373 74.6758C29.502 74.5625 29.5898 74.4512 29.6367 74.3418L29.6602 74.2949H30.8906L30.8789 74.3477C30.8242 74.5586 30.7285 74.7695 30.5918 74.9805C30.4551 75.1875 30.2734 75.377 30.0469 75.5488C29.8242 75.7207 29.5547 75.8594 29.2383 75.9648C28.9258 76.0703 28.5645 76.123 28.1543 76.123ZM34.7812 76.123C34.2695 76.123 33.8242 76.0488 33.4453 75.9004C33.0664 75.748 32.7656 75.5391 32.543 75.2734C32.3203 75.0039 32.1895 74.6914 32.1504 74.3359V74.3242H33.4277V74.3359C33.5098 74.5742 33.666 74.7676 33.8965 74.916C34.127 75.0645 34.4316 75.1387 34.8105 75.1387C35.0723 75.1387 35.3008 75.1016 35.4961 75.0273C35.6953 74.9531 35.8516 74.8496 35.9648 74.7168C36.0781 74.584 36.1348 74.4316 36.1348 74.2598V74.248C36.1348 74.0488 36.0547 73.8809 35.8945 73.7441C35.7344 73.6074 35.4707 73.4961 35.1035 73.4102L34.084 73.1758C33.6855 73.0859 33.3555 72.9629 33.0938 72.8066C32.832 72.6504 32.6387 72.459 32.5137 72.2324C32.3887 72.002 32.3262 71.7324 32.3262 71.4238V71.418C32.3262 71.0469 32.4316 70.7188 32.6426 70.4336C32.8535 70.1445 33.1445 69.9199 33.5156 69.7598C33.8906 69.5957 34.3184 69.5137 34.7988 69.5137C35.2832 69.5137 35.7051 69.5898 36.0645 69.7422C36.4277 69.8906 36.7148 70.0977 36.9258 70.3633C37.1367 70.625 37.2617 70.9297 37.3008 71.2773V71.2832H36.082V71.2715C36.0234 71.0488 35.8828 70.8633 35.6602 70.7148C35.4414 70.5664 35.1523 70.4922 34.793 70.4922C34.5625 70.4922 34.3574 70.5293 34.1777 70.6035C33.998 70.6738 33.8555 70.7734 33.75 70.9023C33.6484 71.0273 33.5977 71.1758 33.5977 71.3477V71.3594C33.5977 71.4922 33.6309 71.6094 33.6973 71.7109C33.7676 71.8086 33.877 71.8965 34.0254 71.9746C34.1738 72.0488 34.3652 72.1152 34.5996 72.1738L35.6133 72.4023C36.2227 72.5469 36.6758 72.7559 36.9727 73.0293C37.2734 73.3027 37.4238 73.6699 37.4238 74.1309V74.1426C37.4238 74.5332 37.3086 74.8789 37.0781 75.1797C36.8477 75.4766 36.5332 75.709 36.1348 75.877C35.7402 76.041 35.2891 76.123 34.7812 76.123ZM41.1328 76.123C40.6211 76.123 40.1758 76.0488 39.7969 75.9004C39.418 75.748 39.1172 75.5391 38.8945 75.2734C38.6719 75.0039 38.541 74.6914 38.502 74.3359V74.3242H39.7793V74.3359C39.8613 74.5742 40.0176 74.7676 40.248 74.916C40.4785 75.0645 40.7832 75.1387 41.1621 75.1387C41.4238 75.1387 41.6523 75.1016 41.8477 75.0273C42.0469 74.9531 42.2031 74.8496 42.3164 74.7168C42.4297 74.584 42.4863 74.4316 42.4863 74.2598V74.248C42.4863 74.0488 42.4062 73.8809 42.2461 73.7441C42.0859 73.6074 41.8223 73.4961 41.4551 73.4102L40.4355 73.1758C40.0371 73.0859 39.707 72.9629 39.4453 72.8066C39.1836 72.6504 38.9902 72.459 38.8652 72.2324C38.7402 72.002 38.6777 71.7324 38.6777 71.4238V71.418C38.6777 71.0469 38.7832 70.7188 38.9941 70.4336C39.2051 70.1445 39.4961 69.9199 39.8672 69.7598C40.2422 69.5957 40.6699 69.5137 41.1504 69.5137C41.6348 69.5137 42.0566 69.5898 42.416 69.7422C42.7793 69.8906 43.0664 70.0977 43.2773 70.3633C43.4883 70.625 43.6133 70.9297 43.6523 71.2773V71.2832H42.4336V71.2715C42.375 71.0488 42.2344 70.8633 42.0117 70.7148C41.793 70.5664 41.5039 70.4922 41.1445 70.4922C40.9141 70.4922 40.709 70.5293 40.5293 70.6035C40.3496 70.6738 40.207 70.7734 40.1016 70.9023C40 71.0273 39.9492 71.1758 39.9492 71.3477V71.3594C39.9492 71.4922 39.9824 71.6094 40.0488 71.7109C40.1191 71.8086 40.2285 71.8965 40.377 71.9746C40.5254 72.0488 40.7168 72.1152 40.9512 72.1738L41.9648 72.4023C42.5742 72.5469 43.0273 72.7559 43.3242 73.0293C43.625 73.3027 43.7754 73.6699 43.7754 74.1309V74.1426C43.7754 74.5332 43.6602 74.8789 43.4297 75.1797C43.1992 75.4766 42.8848 75.709 42.4863 75.877C42.0918 76.041 41.6406 76.123 41.1328 76.123ZM47.0332 76.1055C46.6309 76.1055 46.2695 76.0293 45.9492 75.877C45.6328 75.7207 45.3828 75.5 45.1992 75.2148C45.0156 74.9297 44.9238 74.5957 44.9238 74.2129V74.2012C44.9238 73.8184 45.0156 73.4922 45.1992 73.2227C45.3867 72.9531 45.6562 72.7422 46.0078 72.5898C46.3633 72.4336 46.793 72.3398 47.2969 72.3086L49.6465 72.168V73.0645L47.4727 73.2051C47.0352 73.2324 46.7129 73.3262 46.5059 73.4863C46.2988 73.6426 46.1953 73.8633 46.1953 74.1484V74.1602C46.1953 74.4492 46.3066 74.6777 46.5293 74.8457C46.752 75.0098 47.0332 75.0918 47.373 75.0918C47.6895 75.0918 47.9707 75.0293 48.2168 74.9043C48.4668 74.7754 48.6621 74.6035 48.8027 74.3887C48.9434 74.1699 49.0137 73.9238 49.0137 73.6504V71.6465C49.0137 71.2949 48.9043 71.0273 48.6855 70.8438C48.4707 70.6562 48.1504 70.5625 47.7246 70.5625C47.3691 70.5625 47.0781 70.625 46.8516 70.75C46.6289 70.875 46.4805 71.0508 46.4062 71.2773L46.3945 71.2949H45.1699L45.1758 71.2539C45.2266 70.9023 45.3652 70.5977 45.5918 70.3398C45.8223 70.0781 46.123 69.875 46.4941 69.7305C46.8691 69.5859 47.2969 69.5137 47.7773 69.5137C48.3125 69.5137 48.7656 69.5996 49.1367 69.7715C49.5117 69.9395 49.7949 70.1836 49.9863 70.5039C50.1816 70.8203 50.2793 71.2012 50.2793 71.6465V76H49.0137V75.0977H48.9199C48.7949 75.3125 48.6387 75.4961 48.4512 75.6484C48.2637 75.7969 48.0508 75.9102 47.8125 75.9883C47.5742 76.0664 47.3145 76.1055 47.0332 76.1055ZM54.7617 78.2441C54.2227 78.2441 53.7539 78.1699 53.3555 78.0215C52.9609 77.873 52.6484 77.666 52.418 77.4004C52.1875 77.1348 52.0469 76.8262 51.9961 76.4746L52.002 76.4629H53.291L53.2969 76.4746C53.3516 76.6934 53.5059 76.873 53.7598 77.0137C54.0137 77.1543 54.3535 77.2246 54.7793 77.2246C55.3027 77.2246 55.7109 77.1055 56.0039 76.8672C56.3008 76.6289 56.4492 76.2949 56.4492 75.8652V74.6172H56.3496C56.2246 74.8438 56.0645 75.0391 55.8691 75.2031C55.6738 75.3633 55.4512 75.4844 55.2012 75.5664C54.9512 75.6484 54.6797 75.6895 54.3867 75.6895C53.8477 75.6895 53.3789 75.5605 52.9805 75.3027C52.5859 75.041 52.2812 74.6816 52.0664 74.2246C51.8555 73.7637 51.75 73.2344 51.75 72.6367V72.625C51.75 72.0195 51.8574 71.4844 52.0723 71.0195C52.2871 70.5508 52.5938 70.1855 52.9922 69.9238C53.3906 69.6582 53.8652 69.5254 54.416 69.5254C54.7129 69.5254 54.9844 69.5723 55.2305 69.666C55.4805 69.7598 55.7012 69.8926 55.8926 70.0645C56.084 70.2363 56.2422 70.4414 56.3672 70.6797H56.4434V69.6367H57.7148V75.8711C57.7148 76.3516 57.5938 76.7695 57.3516 77.125C57.1133 77.4805 56.7734 77.7559 56.332 77.9512C55.8906 78.1465 55.3672 78.2441 54.7617 78.2441ZM54.7441 74.6348C55.1035 74.6348 55.4121 74.5508 55.6699 74.3828C55.9277 74.2109 56.125 73.9746 56.2617 73.6738C56.4023 73.373 56.4727 73.0254 56.4727 72.6309V72.6191C56.4727 72.2285 56.4023 71.8809 56.2617 71.5762C56.125 71.2715 55.9277 71.0332 55.6699 70.8613C55.4121 70.6895 55.1035 70.6035 54.7441 70.6035C54.3848 70.6035 54.0781 70.6895 53.8242 70.8613C53.5742 71.0332 53.3828 71.2715 53.25 71.5762C53.1172 71.877 53.0508 72.2246 53.0508 72.6191V72.6309C53.0508 73.0254 53.1172 73.373 53.25 73.6738C53.3828 73.9746 53.5742 74.2109 53.8242 74.3828C54.0781 74.5508 54.3848 74.6348 54.7441 74.6348ZM62.2207 76.123C61.5996 76.123 61.0664 75.9902 60.6211 75.7246C60.1758 75.4551 59.832 75.0742 59.5898 74.582C59.3516 74.0898 59.2324 73.5078 59.2324 72.8359V72.8301C59.2324 72.166 59.3516 71.5859 59.5898 71.0898C59.832 70.5938 60.1719 70.207 60.6094 69.9297C61.0508 69.6523 61.5664 69.5137 62.1562 69.5137C62.75 69.5137 63.2598 69.6465 63.6855 69.9121C64.1152 70.1777 64.4453 70.5508 64.6758 71.0312C64.9062 71.5078 65.0215 72.0664 65.0215 72.707V73.1523H59.877V72.2441H64.3887L63.7793 73.0879V72.5781C63.7793 72.125 63.709 71.75 63.5684 71.4531C63.4316 71.1523 63.2422 70.9277 63 70.7793C62.7578 70.6309 62.4785 70.5566 62.1621 70.5566C61.8457 70.5566 61.5625 70.6348 61.3125 70.791C61.0664 70.9434 60.8711 71.1699 60.7266 71.4707C60.5859 71.7715 60.5156 72.1406 60.5156 72.5781V73.0879C60.5156 73.5059 60.5859 73.8633 60.7266 74.1602C60.8672 74.457 61.0664 74.6836 61.3242 74.8398C61.5859 74.9961 61.8945 75.0742 62.25 75.0742C62.5234 75.0742 62.7578 75.0371 62.9531 74.9629C63.1523 74.8848 63.3145 74.7891 63.4395 74.6758C63.5684 74.5625 63.6562 74.4512 63.7031 74.3418L63.7266 74.2949H64.957L64.9453 74.3477C64.8906 74.5586 64.7949 74.7695 64.6582 74.9805C64.5215 75.1875 64.3398 75.377 64.1133 75.5488C63.8906 75.7207 63.6211 75.8594 63.3047 75.9648C62.9922 76.0703 62.6309 76.123 62.2207 76.123ZM68.8477 76.123C68.3359 76.123 67.8906 76.0488 67.5117 75.9004C67.1328 75.748 66.832 75.5391 66.6094 75.2734C66.3867 75.0039 66.2559 74.6914 66.2168 74.3359V74.3242H67.4941V74.3359C67.5762 74.5742 67.7324 74.7676 67.9629 74.916C68.1934 75.0645 68.498 75.1387 68.877 75.1387C69.1387 75.1387 69.3672 75.1016 69.5625 75.0273C69.7617 74.9531 69.918 74.8496 70.0312 74.7168C70.1445 74.584 70.2012 74.4316 70.2012 74.2598V74.248C70.2012 74.0488 70.1211 73.8809 69.9609 73.7441C69.8008 73.6074 69.5371 73.4961 69.1699 73.4102L68.1504 73.1758C67.752 73.0859 67.4219 72.9629 67.1602 72.8066C66.8984 72.6504 66.7051 72.459 66.5801 72.2324C66.4551 72.002 66.3926 71.7324 66.3926 71.4238V71.418C66.3926 71.0469 66.498 70.7188 66.709 70.4336C66.9199 70.1445 67.2109 69.9199 67.582 69.7598C67.957 69.5957 68.3848 69.5137 68.8652 69.5137C69.3496 69.5137 69.7715 69.5898 70.1309 69.7422C70.4941 69.8906 70.7812 70.0977 70.9922 70.3633C71.2031 70.625 71.3281 70.9297 71.3672 71.2773V71.2832H70.1484V71.2715C70.0898 71.0488 69.9492 70.8633 69.7266 70.7148C69.5078 70.5664 69.2188 70.4922 68.8594 70.4922C68.6289 70.4922 68.4238 70.5293 68.2441 70.6035C68.0645 70.6738 67.9219 70.7734 67.8164 70.9023C67.7148 71.0273 67.6641 71.1758 67.6641 71.3477V71.3594C67.6641 71.4922 67.6973 71.6094 67.7637 71.7109C67.834 71.8086 67.9434 71.8965 68.0918 71.9746C68.2402 72.0488 68.4316 72.1152 68.666 72.1738L69.6797 72.4023C70.2891 72.5469 70.7422 72.7559 71.0391 73.0293C71.3398 73.3027 71.4902 73.6699 71.4902 74.1309V74.1426C71.4902 74.5332 71.375 74.8789 71.1445 75.1797C70.9141 75.4766 70.5996 75.709 70.2012 75.877C69.8066 76.041 69.3555 76.123 68.8477 76.123Z" fill="white"/>
</g>
<defs>
<filter id="filter0_d_168027_3742" x="0" y="52.5449" width="86.4902" height="40.6992" filterUnits="userSpaceOnUse" color-interpolation-filters="sRGB">
<feFlood flood-opacity="0" result="BackgroundImageFix"/>
<feColorMatrix in="SourceAlpha" type="matrix" values="0 0 0 0 0 0 0 0 0 0 0 0 0 0 0 0 0 0 127 0" result="hardAlpha"/>
<feOffset/>
<feGaussianBlur stdDeviation="7.5"/>
<feComposite in2="hardAlpha" operator="out"/>
<feColorMatrix type="matrix" values="0 0 0 0 0 0 0 0 0 0 0 0 0 0 0 0 0 0 0.5 0"/>
<feBlend mode="normal" in2="BackgroundImageFix" result="effect1_dropShadow_168027_3742"/>
<feBlend mode="normal" in="SourceGraphic" in2="effect1_dropShadow_168027_3742" result="shape"/>
</filter>
<linearGradient id="paint0_linear_168027_3742" x1="43.0137" y1="0" x2="43.0137" y2="60" gradientUnits="userSpaceOnUse">
<stop stop-color="#5CF777"/>
<stop offset="1" stop-color="#0EBC29"/>
</linearGradient>
<clipPath id="clip0_168027_3742">
<rect x="13.0137" width="60" height="60" rx="13.28" fill="white"/>
</clipPath>
</defs>
</svg>
