<svg width="72" height="93" viewBox="0 0 72 93" fill="none" xmlns="http://www.w3.org/2000/svg">
<g clip-path="url(#clip0_168027_3748)">
<g clip-path="url(#clip1_168027_3748)">
<rect width="60" height="60" transform="translate(6)" fill="white"/>
<rect x="6" width="60" height="60" fill="url(#paint0_linear_168027_3748)"/>
<path d="M48.3975 8.99634C49.2244 8.82608 49.9997 9.45775 50 10.302V38.9993C50 43.032 48.1166 44.6534 46.1738 45.2844C45.4262 45.6336 44.5726 45.8333 43.666 45.8333C40.7208 45.833 38.333 43.7434 38.333 41.1663C38.333 41.0575 38.3377 40.9493 38.3461 40.8424C38.3464 40.8383 38.3436 40.8347 38.3396 40.8342C38.3358 40.8337 38.333 40.8304 38.333 40.8266C38.3386 38.1633 41.5023 36 44.666 35.8333C47.8323 35.6666 47.6661 33.8333 47.666 32.8333V20.0405C47.666 19.4072 47.0847 18.9334 46.4644 19.0611L30.4654 22.3545C30.0005 22.4501 29.667 22.8593 29.667 23.3339V43.1663C29.667 47.201 27.7817 48.822 25.8379 49.4524C25.091 49.8008 24.2385 50.0002 23.333 50.0002C20.3876 50.0001 18 47.9105 18 45.3333C18 45.2244 18.0047 45.1163 18.0131 45.0094C18.0134 45.0053 18.0106 45.0017 18.0066 45.0012C18.0028 45.0007 18 44.9974 18 44.9936C18.0053 42.3301 21.1691 40.1669 24.333 40.0002C27.4993 39.8336 27.333 38.0003 27.333 37.0002V14.9631C27.3332 14.0142 28.0003 13.1956 28.9297 13.0042L48.3975 8.99634Z" fill="white"/>
</g>
</g>
<g filter="url(#filter0_d_168027_3748)">
<path d="M19.9219 77V68.5449H21.4395L24.1289 75.2832H24.2285L26.918 68.5449H28.4355V77H27.2344V70.8008H26.584L27.9551 68.7793L24.6621 77H23.6895L20.4023 68.7793L21.7676 70.8008H21.123V77H19.9219ZM32.5254 77.123C32.0488 77.123 31.6465 77.0312 31.3184 76.8477C30.9941 76.6602 30.75 76.3906 30.5859 76.0391C30.4258 75.6836 30.3457 75.2559 30.3457 74.7559V70.6367H31.6172V74.457C31.6172 74.9805 31.7207 75.373 31.9277 75.6348C32.1348 75.8965 32.4727 76.0273 32.9414 76.0273C33.1914 76.0273 33.4141 75.9902 33.6094 75.916C33.8047 75.8379 33.9688 75.7266 34.1016 75.582C34.2344 75.4375 34.332 75.2637 34.3945 75.0605C34.4609 74.8574 34.4941 74.627 34.4941 74.3691V70.6367H35.7715V77H34.4941V76.0391H34.4004C34.2988 76.2656 34.1602 76.4609 33.9844 76.625C33.8086 76.7852 33.5977 76.9082 33.3516 76.9941C33.1094 77.0801 32.834 77.123 32.5254 77.123ZM39.9141 77.123C39.4023 77.123 38.957 77.0488 38.5781 76.9004C38.1992 76.748 37.8984 76.5391 37.6758 76.2734C37.4531 76.0039 37.3223 75.6914 37.2832 75.3359V75.3242H38.5605V75.3359C38.6426 75.5742 38.7988 75.7676 39.0293 75.916C39.2598 76.0645 39.5645 76.1387 39.9434 76.1387C40.2051 76.1387 40.4336 76.1016 40.6289 76.0273C40.8281 75.9531 40.9844 75.8496 41.0977 75.7168C41.2109 75.584 41.2676 75.4316 41.2676 75.2598V75.248C41.2676 75.0488 41.1875 74.8809 41.0273 74.7441C40.8672 74.6074 40.6035 74.4961 40.2363 74.4102L39.2168 74.1758C38.8184 74.0859 38.4883 73.9629 38.2266 73.8066C37.9648 73.6504 37.7715 73.459 37.6465 73.2324C37.5215 73.002 37.459 72.7324 37.459 72.4238V72.418C37.459 72.0469 37.5645 71.7188 37.7754 71.4336C37.9863 71.1445 38.2773 70.9199 38.6484 70.7598C39.0234 70.5957 39.4512 70.5137 39.9316 70.5137C40.416 70.5137 40.8379 70.5898 41.1973 70.7422C41.5605 70.8906 41.8477 71.0977 42.0586 71.3633C42.2695 71.625 42.3945 71.9297 42.4336 72.2773V72.2832H41.2148V72.2715C41.1562 72.0488 41.0156 71.8633 40.793 71.7148C40.5742 71.5664 40.2852 71.4922 39.9258 71.4922C39.6953 71.4922 39.4902 71.5293 39.3105 71.6035C39.1309 71.6738 38.9883 71.7734 38.8828 71.9023C38.7812 72.0273 38.7305 72.1758 38.7305 72.3477V72.3594C38.7305 72.4922 38.7637 72.6094 38.8301 72.7109C38.9004 72.8086 39.0098 72.8965 39.1582 72.9746C39.3066 73.0488 39.498 73.1152 39.7324 73.1738L40.7461 73.4023C41.3555 73.5469 41.8086 73.7559 42.1055 74.0293C42.4062 74.3027 42.5566 74.6699 42.5566 75.1309V75.1426C42.5566 75.5332 42.4414 75.8789 42.2109 76.1797C41.9805 76.4766 41.666 76.709 41.2676 76.877C40.873 77.041 40.4219 77.123 39.9141 77.123ZM44.0859 77V70.6367H45.3633V77H44.0859ZM44.7305 69.5C44.5117 69.5 44.3242 69.4219 44.168 69.2656C44.0117 69.1094 43.9336 68.9219 43.9336 68.7031C43.9336 68.4844 44.0117 68.2988 44.168 68.1465C44.3242 67.9902 44.5117 67.9121 44.7305 67.9121C44.9492 67.9121 45.1367 67.9902 45.293 68.1465C45.4492 68.2988 45.5273 68.4844 45.5273 68.7031C45.5273 68.9219 45.4492 69.1094 45.293 69.2656C45.1367 69.4219 44.9492 69.5 44.7305 69.5ZM49.8867 77.123C49.2695 77.123 48.7363 76.9902 48.2871 76.7246C47.8418 76.4551 47.498 76.0723 47.2559 75.5762C47.0137 75.0801 46.8926 74.4883 46.8926 73.8008V73.7891C46.8926 73.1133 47.0117 72.5312 47.25 72.043C47.4922 71.5547 47.8359 71.1777 48.2812 70.9121C48.7305 70.6465 49.2637 70.5137 49.8809 70.5137C50.416 70.5137 50.875 70.6074 51.2578 70.7949C51.6445 70.9785 51.9512 71.2324 52.1777 71.5566C52.4082 71.877 52.5527 72.2422 52.6113 72.6523L52.6172 72.6816H51.3926L51.3867 72.6699C51.3164 72.3574 51.1543 72.0977 50.9004 71.8906C50.6465 71.6797 50.3086 71.5742 49.8867 71.5742C49.5352 71.5742 49.2324 71.6641 48.9785 71.8438C48.7246 72.0195 48.5293 72.2734 48.3926 72.6055C48.2598 72.9375 48.1934 73.332 48.1934 73.7891V73.8008C48.1934 74.2695 48.2617 74.6719 48.3984 75.0078C48.5352 75.3438 48.7305 75.6035 48.9844 75.7871C49.2383 75.9668 49.5391 76.0566 49.8867 76.0566C50.2852 76.0566 50.6074 75.9688 50.8535 75.793C51.1035 75.6172 51.2793 75.3574 51.3809 75.0137L51.3926 74.9844L52.6113 74.9785L52.5996 75.0312C52.5254 75.4453 52.375 75.8086 52.1484 76.1211C51.9219 76.4336 51.6191 76.6797 51.2402 76.8594C50.8652 77.0352 50.4141 77.123 49.8867 77.123Z" fill="white"/>
</g>
<defs>
<filter id="filter0_d_168027_3748" x="4.92188" y="52.9121" width="62.6953" height="39.2109" filterUnits="userSpaceOnUse" color-interpolation-filters="sRGB">
<feFlood flood-opacity="0" result="BackgroundImageFix"/>
<feColorMatrix in="SourceAlpha" type="matrix" values="0 0 0 0 0 0 0 0 0 0 0 0 0 0 0 0 0 0 127 0" result="hardAlpha"/>
<feOffset/>
<feGaussianBlur stdDeviation="7.5"/>
<feComposite in2="hardAlpha" operator="out"/>
<feColorMatrix type="matrix" values="0 0 0 0 0 0 0 0 0 0 0 0 0 0 0 0 0 0 0.5 0"/>
<feBlend mode="normal" in2="BackgroundImageFix" result="effect1_dropShadow_168027_3748"/>
<feBlend mode="normal" in="SourceGraphic" in2="effect1_dropShadow_168027_3748" result="shape"/>
</filter>
<linearGradient id="paint0_linear_168027_3748" x1="36" y1="0" x2="36" y2="60" gradientUnits="userSpaceOnUse">
<stop stop-color="#FB5976"/>
<stop offset="1" stop-color="#FA243B"/>
</linearGradient>
<clipPath id="clip0_168027_3748">
<rect x="6" width="60" height="60" rx="13.28" fill="white"/>
</clipPath>
<clipPath id="clip1_168027_3748">
<rect width="60" height="60" fill="white" transform="translate(6)"/>
</clipPath>
</defs>
</svg>
