<svg width="20" height="20" viewBox="0 0 20 20" fill="none" xmlns="http://www.w3.org/2000/svg">
<g clip-path="url(#clip0_168027_3997)">
<path d="M11.9523 19.2568C12.6396 19.2568 13.1265 18.7119 13.4798 17.8682L19.7327 2.83008C19.9045 2.42578 20 2.06543 20 1.7666C20 1.19531 19.6181 0.84375 18.9976 0.84375C18.673 0.84375 18.2817 0.931641 17.8425 1.08984L1.42243 6.88184C0.620524 7.16309 0 7.61133 0 8.25293C0 9.06152 0.668257 9.33398 1.58472 9.58887L6.73985 11.0303C7.35083 11.2061 7.6945 11.1885 8.105 10.8369L18.5775 1.82812C18.7017 1.72266 18.8448 1.74023 18.9403 1.81934C19.0358 1.90723 19.0454 2.03906 18.9308 2.15332L9.18377 11.8301C8.81144 12.1904 8.78281 12.4893 8.96419 13.0781L10.4821 17.7188C10.7685 18.6064 11.0644 19.2568 11.9523 19.2568Z" fill="white"/>
</g>
<defs>
<clipPath id="clip0_168027_3997">
<rect width="20" height="20" fill="white"/>
</clipPath>
</defs>
</svg>
